<?xml version="1.0" encoding="utf-8"?>
<!-- Generator: Adobe Illustrator 28.7.1, SVG Export Plug-In . SVG Version: 9.03 Build 54978)  -->
<svg version="1.0" id="Layer_1" xmlns="http://www.w3.org/2000/svg" xmlns:xlink="http://www.w3.org/1999/xlink" x="0px" y="0px"
	 viewBox="0 0 64 64" style="enable-background:new 0 0 64 64;" xml:space="preserve">
<style type="text/css">
	.st0{fill:none;stroke:#5C6751;stroke-width:2;stroke-linecap:round;stroke-linejoin:round;stroke-miterlimit:10;}
</style>
<g>
	<path class="st0" d="M10.3,31.2H8.1c-0.8,0-1.5-0.7-1.5-1.5v-8.5c0-0.7,0.5-1.3,1.2-1.5l11.7-2.5h15.7h0.9c0.8,0,1.5,0.7,1.5,1.5
		v5.7"/>
	<line class="st0" x1="28.8" y1="31.2" x2="17.6" y2="31.2"/>
	<polygon class="st0" points="35.2,17.3 19.5,17.3 23.8,5.4 35.2,5.4 	"/>
	<circle class="st0" cx="14" cy="31.3" r="3.7"/>
	<circle class="st0" cx="34.2" cy="29.2" r="5.8"/>
	<line class="st0" x1="21.1" y1="5.4" x2="37.6" y2="5.4"/>
	<polyline class="st0" points="37.6,21.9 57.9,29.2 57.9,34.9 	"/>
	<line class="st0" x1="43.3" y1="29.2" x2="43.3" y2="34.9"/>
	<line class="st0" x1="48.2" y1="29.2" x2="48.2" y2="34.9"/>
	<line class="st0" x1="53" y1="29.2" x2="53" y2="34.9"/>
	<line class="st0" x1="57.9" y1="29.2" x2="40" y2="29.2"/>
	<path class="st0" d="M3.3,38.3c3.6,0,3.6,2,7.2,2c3.6,0,3.6-2,7.2-2c3.6,0,3.6,2,7.2,2c3.6,0,3.6-2,7.2-2c3.6,0,3.6,2,7.2,2
		c3.6,0,3.6-2,7.2-2c3.6,0,3.6,2,7.2,2s3.6-2,7.2-2"/>
	<path class="st0" d="M3.3,47.4c3.6,0,3.6,2,7.2,2c3.6,0,3.6-2,7.2-2c3.6,0,3.6,2,7.2,2c3.6,0,3.6-2,7.2-2c3.6,0,3.6,2,7.2,2
		c3.6,0,3.6-2,7.2-2c3.6,0,3.6,2,7.2,2s3.6-2,7.2-2"/>
	<path class="st0" d="M3.3,56.6c3.6,0,3.6,2,7.2,2c3.6,0,3.6-2,7.2-2c3.6,0,3.6,2,7.2,2c3.6,0,3.6-2,7.2-2c3.6,0,3.6,2,7.2,2
		c3.6,0,3.6-2,7.2-2c3.6,0,3.6,2,7.2,2s3.6-2,7.2-2"/>
	<line class="st0" x1="60.7" y1="10.1" x2="40" y2="10.1"/>
	<line class="st0" x1="17.6" y1="10.1" x2="3.3" y2="10.1"/>
</g>
</svg>
