<?xml version="1.0" encoding="UTF-8"?>
<svg id="Layer_2" data-name="Layer 2" xmlns="http://www.w3.org/2000/svg" viewBox="0 0 781.5 68.41">
  <defs>
    <style>
      .cls-1 {
        fill: #eee2cd;
      }

      .cls-2 {
        fill: #5c6751;
      }

      .cls-3 {
        fill: #495241;
      }

      .cls-4 {
        fill: #c4e3e5;
      }

      .cls-5 {
        fill: #af5638;
      }
    </style>
  </defs>
  <g id="Layer_1-2" data-name="Layer 1">
    <g>
      <rect class="cls-5" x="520.05" y="1.37" width="67.94" height="65.21" transform="translate(520.05 587.99) rotate(-90)"/>
      <g>
        <path class="cls-1" d="M527.95,33.97h0c6.4-6.67,16.78-6.67,23.18,0h0c-6.4,6.67-16.78,6.67-23.18,0h0Z"/>
        <path class="cls-1" d="M556.93,33.97h0c6.4-6.67,16.78-6.67,23.18,0h0c-6.4,6.67-16.78,6.67-23.18,0h0Z"/>
        <path class="cls-1" d="M554.03,6.79h0c6.4,6.67,6.4,17.48,0,24.15h0c-6.4-6.67-6.4-17.48,0-24.15h0Z"/>
        <path class="cls-1" d="M554.03,36.99h0c6.4,6.67,6.4,17.48,0,24.15h0c-6.4-6.67-6.4-17.48,0-24.15h0Z"/>
      </g>
      <g>
        <path class="cls-4" d="M535.76,14.94h0c6.4,0,11.59,5.41,11.59,12.08h0s0,0,0,0c-6.4,0-11.59-5.41-11.59-12.08h0Z"/>
        <path class="cls-4" d="M560.7,40.92h0c6.4,0,11.59,5.41,11.59,12.08h0c-6.4,0-11.59-5.41-11.59-12.08h0Z"/>
        <path class="cls-4" d="M572.29,14.94h0c0,6.67-5.19,12.08-11.59,12.08h0c0-6.67,5.19-12.08,11.59-12.08h0Z"/>
        <path class="cls-4" d="M547.36,40.92h0c0,6.67-5.19,12.08-11.59,12.08h0c0-6.67,5.19-12.08,11.59-12.08h0Z"/>
      </g>
      <g>
        <rect class="cls-5" x="716.52" y=".69" width="64.98" height="67.7" transform="translate(1498.02 69.09) rotate(180)"/>
        <g>
          <rect class="cls-3" x="651.61" y=".69" width="64.98" height="67.7" transform="translate(1368.19 69.09) rotate(180)"/>
          <rect class="cls-1" x="585.27" y="2.05" width="67.7" height="64.98" transform="translate(584.57 653.66) rotate(-90)"/>
        </g>
        <g>
          <g>
            <path class="cls-1" d="M771.97,10.61h0c0,11.75-9.14,21.27-20.42,21.27h0c0-11.75,9.14-21.27,20.42-21.27h0Z"/>
            <path class="cls-1" d="M746.45,37.21h0c0,11.75-9.14,21.27-20.42,21.27h0c0-11.75,9.14-21.27,20.42-21.27h0Z"/>
            <path class="cls-1" d="M771.97,58.48h0c-11.28,0-20.42-9.52-20.42-21.27h0c11.28,0,20.42,9.52,20.42,21.27h0Z"/>
            <path class="cls-1" d="M746.45,31.88h0c-11.28,0-20.42-9.52-20.42-21.27h0c11.28,0,20.42,9.52,20.42,21.27h0Z"/>
          </g>
          <g>
            <path class="cls-4" d="M781.18,34.54h0c-5.64,5.87-14.78,5.87-20.42,0h0c5.64-5.87,14.78-5.87,20.42,0h0Z"/>
            <path class="cls-4" d="M737.24,34.54h0c-5.64,5.87-14.78,5.87-20.42,0h0c5.64-5.87,14.78-5.87,20.42,0h0Z"/>
            <path class="cls-4" d="M749,68.07h0c-5.64-5.87-5.64-15.4,0-21.27h0c5.64,5.87,5.64,15.4,0,21.27h0Z"/>
            <path class="cls-4" d="M749,22.29h0c-5.64-5.87-5.64-15.4,0-21.27h0c5.64,5.87,5.64,15.4,0,21.27h0Z"/>
          </g>
        </g>
        <g>
          <path class="cls-2" d="M586.32,34.56h0c17.94,0,32.49,15.16,32.49,33.85h0c-17.94,0-32.49-15.16-32.49-33.85h0Z"/>
          <path class="cls-2" d="M586.32,34.56h0c0-18.7,14.55-33.85,32.49-33.85h0c0,18.7-14.55,33.85-32.49,33.85h0Z"/>
          <path class="cls-2" d="M651.3,34.56h0c-17.94,0-32.49-15.16-32.49-33.85h0c17.94,0,32.49,15.16,32.49,33.85h0Z"/>
          <path class="cls-2" d="M651.3,34.56h0c0,18.7-14.55,33.85-32.49,33.85h0c0-18.7,14.55-33.85,32.49-33.85h0Z"/>
        </g>
        <path class="cls-5" d="M614.3,34.56c0-2.59,2.02-4.7,4.51-4.7s4.51,2.1,4.51,4.7-2.02,4.7-4.51,4.7-4.51-2.1-4.51-4.7Z"/>
        <g>
          <ellipse class="cls-5" cx="700.46" cy="51.48" rx="16.06" ry="16.93"/>
          <path class="cls-1" d="M700.46,39.97c5.99,0,10.87,5.16,10.87,11.51s-4.87,11.51-10.87,11.51-10.87-5.16-10.87-11.51,4.87-11.51,10.87-11.51Z"/>
          <ellipse class="cls-5" cx="699.97" cy="17.63" rx="16.06" ry="16.93"/>
          <ellipse class="cls-1" cx="699.97" cy="17.63" rx="10.87" ry="11.51"/>
        </g>
        <g>
          <ellipse class="cls-5" cx="668.09" cy="51.48" rx="16.06" ry="16.93"/>
          <path class="cls-1" d="M668.09,39.97c5.99,0,10.87,5.16,10.87,11.51s-4.87,11.51-10.87,11.51-10.87-5.16-10.87-11.51,4.87-11.51,10.87-11.51Z"/>
          <ellipse class="cls-5" cx="667.61" cy="17.63" rx="16.06" ry="16.93"/>
          <ellipse class="cls-1" cx="667.61" cy="17.63" rx="10.87" ry="11.51"/>
        </g>
      </g>
      <g>
        <rect class="cls-1" x="-1.36" y="2.05" width="67.7" height="64.98" transform="translate(-2.05 67.03) rotate(-90)"/>
        <g>
          <path class="cls-2" d="M0,.69H0C17.94,.69,32.48,15.84,32.48,34.53h0s0,0,0,0C14.54,34.53,0,19.38,0,.69H0Z"/>
          <path class="cls-2" d="M32.5,34.55h0c17.94,0,32.48,15.15,32.48,33.84h0c-17.94,0-32.48-15.15-32.48-33.84h0Z"/>
          <path class="cls-2" d="M64.98,.69h0c0,18.69-14.54,33.84-32.48,33.84h0C32.5,15.84,47.04,.69,64.98,.69h0Z"/>
          <path class="cls-2" d="M32.48,34.55h0c0,18.69-14.54,33.84-32.48,33.84H0c0-18.69,14.54-33.84,32.48-33.84h0Z"/>
        </g>
      </g>
      <g>
        <g>
          <g>
            <rect class="cls-5" x="389.48" y=".69" width="64.98" height="67.7" transform="translate(843.94 69.09) rotate(180)"/>
            <rect class="cls-1" x="323.14" y="2.05" width="67.7" height="64.98" transform="translate(322.44 391.53) rotate(-90)"/>
          </g>
          <rect class="cls-5" x="259.52" y=".69" width="64.98" height="67.7" transform="translate(584.02 69.09) rotate(180)"/>
          <g>
            <rect class="cls-3" x="194.61" y=".69" width="64.98" height="67.7" transform="translate(454.19 69.09) rotate(180)"/>
            <rect class="cls-1" x="128.27" y="2.05" width="67.7" height="64.98" transform="translate(127.57 196.66) rotate(-90)"/>
          </g>
          <g>
            <g>
              <path class="cls-1" d="M314.97,10.61h0c0,11.75-9.14,21.27-20.42,21.27h0c0-11.75,9.14-21.27,20.42-21.27h0Z"/>
              <path class="cls-1" d="M289.45,37.21h0c0,11.75-9.14,21.27-20.42,21.27h0c0-11.75,9.14-21.27,20.42-21.27h0Z"/>
              <path class="cls-1" d="M314.97,58.48h0c-11.28,0-20.42-9.52-20.42-21.27h0c11.28,0,20.42,9.52,20.42,21.27h0Z"/>
              <path class="cls-1" d="M289.45,31.88h0c-11.28,0-20.42-9.52-20.42-21.27h0c11.28,0,20.42,9.52,20.42,21.27h0Z"/>
            </g>
            <g>
              <path class="cls-4" d="M324.18,34.54h0c-5.64,5.87-14.78,5.87-20.42,0h0c5.64-5.87,14.78-5.87,20.42,0h0Z"/>
              <path class="cls-4" d="M280.24,34.54h0c-5.64,5.87-14.78,5.87-20.42,0h0c5.64-5.87,14.78-5.87,20.42,0h0Z"/>
              <path class="cls-4" d="M292,68.07h0c-5.64-5.87-5.64-15.4,0-21.27h0c5.64,5.87,5.64,15.4,0,21.27h0Z"/>
              <path class="cls-4" d="M292,22.29h0c-5.64-5.87-5.64-15.4,0-21.27h0c5.64,5.87,5.64,15.4,0,21.27h0Z"/>
            </g>
          </g>
          <g>
            <path class="cls-2" d="M324.5,.69h0c17.94,0,32.48,15.15,32.48,33.84h0s0,0,0,0c-17.94,0-32.48-15.15-32.48-33.84h0Z"/>
            <path class="cls-2" d="M357,34.55h0c17.94,0,32.48,15.15,32.48,33.84h0c-17.94,0-32.48-15.15-32.48-33.84h0Z"/>
            <path class="cls-2" d="M389.48,.69h0c0,18.69-14.54,33.84-32.48,33.84h0c0-18.69,14.54-33.84,32.48-33.84h0Z"/>
            <path class="cls-2" d="M356.98,34.55h0c0,18.69-14.54,33.84-32.48,33.84h0c0-18.69,14.54-33.84,32.48-33.84h0Z"/>
          </g>
          <g>
            <path class="cls-2" d="M129.32,34.56h0c17.94,0,32.49,15.16,32.49,33.85h0c-17.94,0-32.49-15.16-32.49-33.85h0Z"/>
            <path class="cls-2" d="M129.32,34.56h0c0-18.7,14.55-33.85,32.49-33.85h0c0,18.7-14.55,33.85-32.49,33.85h0Z"/>
            <path class="cls-2" d="M194.3,34.56h0c-17.94,0-32.49-15.16-32.49-33.85h0c17.94,0,32.49,15.16,32.49,33.85h0Z"/>
            <path class="cls-2" d="M194.3,34.56h0c0,18.7-14.55,33.85-32.49,33.85h0c0-18.7,14.55-33.85,32.49-33.85h0Z"/>
          </g>
          <path class="cls-5" d="M157.3,34.56c0-2.59,2.02-4.7,4.51-4.7s4.51,2.1,4.51,4.7-2.02,4.7-4.51,4.7-4.51-2.1-4.51-4.7Z"/>
          <g>
            <g>
              <path class="cls-4" d="M389.48,34.54h0c8.97-9.35,23.51-9.35,32.48,0h0c-8.97,9.35-23.51,9.35-32.48,0h0Z"/>
              <path class="cls-4" d="M421.98,34.54h0c8.97-9.35,23.51-9.35,32.48,0h0c-8.97,9.35-23.51,9.35-32.48,0h0Z"/>
              <path class="cls-4" d="M421.97,.69h0c8.97,9.35,8.97,24.5,0,33.84h0s0,0,0,0c-8.97-9.35-8.97-24.5,0-33.84h0Z"/>
              <path class="cls-4" d="M421.97,34.55h0c8.97,9.35,8.97,24.5,0,33.84h0c-8.97-9.35-8.97-24.5,0-33.84h0Z"/>
            </g>
            <g>
              <path class="cls-1" d="M389.48,.69h0c17.94,0,32.48,15.15,32.48,33.84h0s0,0,0,0c-17.94,0-32.48-15.15-32.48-33.84h0Z"/>
              <path class="cls-1" d="M421.98,34.55h0c17.94,0,32.48,15.15,32.48,33.84h0c-17.94,0-32.48-15.15-32.48-33.84h0Z"/>
              <path class="cls-1" d="M454.46,.69h0c0,18.69-14.54,33.84-32.48,33.84h0c0-18.69,14.54-33.84,32.48-33.84h0Z"/>
              <path class="cls-1" d="M421.96,34.55h0c0,18.69-14.54,33.84-32.48,33.84h0c0-18.69,14.54-33.84,32.48-33.84h0Z"/>
            </g>
            <ellipse class="cls-5" cx="421.97" cy="34.54" rx="12.56" ry="13.09"/>
          </g>
          <g>
            <ellipse class="cls-5" cx="243.46" cy="51.48" rx="16.06" ry="16.93"/>
            <path class="cls-1" d="M243.46,39.97c5.99,0,10.87,5.16,10.87,11.51s-4.87,11.51-10.87,11.51-10.87-5.16-10.87-11.51,4.87-11.51,10.87-11.51Z"/>
            <ellipse class="cls-5" cx="242.97" cy="17.63" rx="16.06" ry="16.93"/>
            <ellipse class="cls-1" cx="242.97" cy="17.63" rx="10.87" ry="11.51"/>
          </g>
          <g>
            <ellipse class="cls-5" cx="211.09" cy="51.48" rx="16.06" ry="16.93"/>
            <path class="cls-1" d="M211.09,39.97c5.99,0,10.87,5.16,10.87,11.51s-4.87,11.51-10.87,11.51-10.87-5.16-10.87-11.51,4.87-11.51,10.87-11.51Z"/>
            <ellipse class="cls-5" cx="210.61" cy="17.63" rx="16.06" ry="16.93"/>
            <ellipse class="cls-1" cx="210.61" cy="17.63" rx="10.87" ry="11.51"/>
          </g>
        </g>
        <rect class="cls-5" x="64.65" y=".71" width="64.98" height="67.7" transform="translate(194.28 69.12) rotate(180)"/>
        <g>
          <path class="cls-1" d="M74.29,10.73c6.33,0,12.05,2.69,16.18,7.03-.01-6.11,2.2-12.23,6.68-16.89h0c4.48,4.66,6.69,10.78,6.68,16.89,4.14-4.33,9.85-7.03,16.18-7.03h0c0,6.6-2.58,12.55-6.74,16.86,5.87-.02,11.74,2.29,16.21,6.96h0c-4.48,4.66-10.35,6.97-16.21,6.96,4.16,4.31,6.74,10.27,6.74,16.86h0c-6.33,0-12.05-2.69-16.18-7.03,.01,6.11-2.2,12.23-6.68,16.89-4.48-4.66-6.69-10.78-6.68-16.89-4.14,4.33-9.85,7.03-16.18,7.03,0-6.6,2.58-12.55,6.74-16.86-5.87,.02-11.74-2.29-16.21-6.96,4.48-4.66,10.35-6.97,16.21-6.96-4.16-4.31-6.74-10.27-6.74-16.86Zm20.74,14.9c-.22,.06-.43,.11-.64,.19-.21,.07-.41,.16-.61,.24-.2,.09-.4,.17-.59,.28-.2,.1-.39,.22-.58,.35-1.23,.77-2.25,1.84-3,3.12-.12,.2-.23,.4-.33,.61-.1,.2-.18,.41-.26,.62-.08,.21-.17,.42-.23,.64-.07,.22-.12,.45-.18,.67-.34,1.45-.34,2.97,0,4.42,.05,.23,.11,.45,.18,.67,.07,.22,.15,.43,.23,.64,.08,.21,.17,.42,.27,.62,.1,.21,.22,.41,.33,.61,.74,1.28,1.77,2.35,3,3.12,.19,.12,.38,.24,.58,.34,.19,.1,.39,.19,.6,.28,.2,.09,.4,.17,.61,.24,.21,.07,.43,.13,.65,.19,1.39,.36,2.85,.36,4.24,0,.22-.06,.43-.11,.65-.19,.21-.07,.41-.16,.61-.24,.2-.09,.4-.18,.6-.28,.2-.1,.39-.22,.58-.34,1.23-.77,2.26-1.84,3-3.13,.12-.2,.23-.4,.33-.6,.1-.2,.18-.41,.27-.62,.08-.21,.16-.42,.23-.63,.07-.22,.12-.45,.18-.68,.34-1.45,.34-2.96,0-4.41-.05-.23-.11-.45-.18-.67-.07-.21-.15-.42-.23-.63-.08-.21-.17-.42-.27-.62-.1-.21-.21-.41-.33-.61-.74-1.28-1.77-2.35-3-3.12-.19-.12-.39-.24-.58-.35-.19-.1-.39-.19-.59-.28-.2-.09-.41-.17-.61-.24-.21-.07-.43-.13-.64-.18-1.39-.36-2.85-.36-4.24,0Z"/>
          <path class="cls-4" d="M99.59,28.39c-.21-.09-.43-.14-.65-.21-.18-.06-.36-.13-.55-.17-.41-.08-.82-.13-1.24-.13,0,0-.01,0-.02,0s-.01,0-.02,0c-.42,0-.83,.05-1.24,.13-.19,.04-.36,.11-.55,.17-.22,.07-.44,.12-.65,.21-.21,.09-.41,.22-.61,.33-.17,.09-.34,.17-.5,.28-.7,.49-1.3,1.12-1.77,1.85-.11,.17-.18,.34-.27,.52-.11,.21-.23,.41-.32,.63-.09,.22-.14,.45-.2,.68-.05,.19-.12,.37-.16,.57-.16,.86-.16,1.75,0,2.61,.04,.2,.11,.38,.16,.57,.06,.23,.11,.46,.2,.68,.09,.22,.21,.42,.32,.63,.09,.17,.16,.35,.27,.52,.47,.73,1.07,1.36,1.77,1.85,.16,.11,.33,.19,.5,.28,.2,.11,.39,.24,.61,.33,.21,.09,.43,.14,.65,.21,.18,.06,.36,.13,.55,.17,.83,.17,1.68,.17,2.51,0,.19-.04,.36-.11,.55-.17,.22-.07,.44-.12,.65-.21,.21-.09,.41-.22,.61-.33,.17-.09,.34-.17,.5-.28,.7-.49,1.3-1.12,1.77-1.85,.11-.17,.18-.34,.27-.52,.11-.21,.23-.41,.32-.63,.09-.22,.14-.45,.2-.68,.05-.19,.12-.37,.16-.57,.08-.43,.12-.86,.12-1.29,0,0,0-.01,0-.02s0-.01,0-.02c0-.43-.04-.86-.12-1.29-.04-.2-.11-.38-.16-.57-.06-.23-.11-.46-.2-.68-.09-.22-.21-.42-.32-.63-.09-.17-.16-.35-.27-.52-.47-.73-1.07-1.36-1.77-1.85-.16-.11-.33-.19-.5-.28-.2-.11-.39-.24-.61-.33Z"/>
        </g>
      </g>
      <rect class="cls-3" x="456.44" y=".71" width="64.98" height="67.7" transform="translate(977.85 69.12) rotate(180)"/>
      <g>
        <path class="cls-1" d="M466.08,10.73c6.33,0,12.05,2.69,16.18,7.03-.01-6.11,2.2-12.23,6.68-16.89h0c4.48,4.66,6.69,10.78,6.68,16.89,4.14-4.33,9.85-7.03,16.18-7.03h0c0,6.6-2.58,12.55-6.74,16.86,5.87-.02,11.74,2.29,16.21,6.96h0c-4.48,4.66-10.35,6.97-16.21,6.96,4.16,4.31,6.74,10.27,6.74,16.86h0c-6.33,0-12.05-2.69-16.18-7.03,.01,6.11-2.2,12.23-6.68,16.89-4.48-4.66-6.69-10.78-6.68-16.89-4.14,4.33-9.85,7.03-16.18,7.03,0-6.6,2.58-12.55,6.74-16.86-5.87,.02-11.74-2.29-16.21-6.96,4.48-4.66,10.35-6.97,16.21-6.96-4.16-4.31-6.74-10.27-6.74-16.86Zm20.74,14.9c-.22,.06-.43,.11-.64,.19-.21,.07-.41,.16-.61,.24-.2,.09-.4,.17-.59,.28-.2,.1-.39,.22-.58,.35-1.23,.77-2.25,1.84-3,3.12-.12,.2-.23,.4-.33,.61-.1,.2-.18,.41-.26,.62-.08,.21-.17,.42-.23,.64-.07,.22-.12,.45-.18,.67-.34,1.45-.34,2.97,0,4.42,.05,.23,.11,.45,.18,.67,.07,.22,.15,.43,.23,.64,.08,.21,.17,.42,.27,.62,.1,.21,.22,.41,.33,.61,.74,1.28,1.77,2.35,3,3.12,.19,.12,.38,.24,.58,.34,.19,.1,.39,.19,.6,.28,.2,.09,.4,.17,.61,.24,.21,.07,.43,.13,.65,.19,1.39,.36,2.85,.36,4.24,0,.22-.06,.43-.11,.65-.19,.21-.07,.41-.16,.61-.24,.2-.09,.4-.18,.6-.28,.2-.1,.39-.22,.58-.34,1.23-.77,2.26-1.84,3-3.13,.12-.2,.23-.4,.33-.6,.1-.2,.18-.41,.27-.62,.08-.21,.16-.42,.23-.63,.07-.22,.12-.45,.18-.68,.34-1.45,.34-2.96,0-4.41-.05-.23-.11-.45-.18-.67-.07-.21-.15-.42-.23-.63-.08-.21-.17-.42-.27-.62-.1-.21-.21-.41-.33-.61-.74-1.28-1.77-2.35-3-3.12-.19-.12-.39-.24-.58-.35-.19-.1-.39-.19-.59-.28-.2-.09-.41-.17-.61-.24-.21-.07-.43-.13-.64-.18-1.39-.36-2.85-.36-4.24,0Z"/>
        <path class="cls-4" d="M491.38,28.39c-.21-.09-.43-.14-.65-.21-.18-.06-.36-.13-.55-.17-.41-.08-.82-.13-1.24-.13,0,0-.01,0-.02,0s-.01,0-.02,0c-.42,0-.83,.05-1.24,.13-.19,.04-.36,.11-.55,.17-.22,.07-.44,.12-.65,.21-.21,.09-.41,.22-.61,.33-.17,.09-.34,.17-.5,.28-.7,.49-1.3,1.12-1.77,1.85-.11,.17-.18,.34-.27,.52-.11,.21-.23,.41-.32,.63-.09,.22-.14,.45-.2,.68-.05,.19-.12,.37-.16,.57-.16,.86-.16,1.75,0,2.61,.04,.2,.11,.38,.16,.57,.06,.23,.11,.46,.2,.68,.09,.22,.21,.42,.32,.63,.09,.17,.16,.35,.27,.52,.47,.73,1.07,1.36,1.77,1.85,.16,.11,.33,.19,.5,.28,.2,.11,.39,.24,.61,.33,.21,.09,.43,.14,.65,.21,.18,.06,.36,.13,.55,.17,.83,.17,1.68,.17,2.51,0,.19-.04,.36-.11,.55-.17,.22-.07,.44-.12,.65-.21,.21-.09,.41-.22,.61-.33,.17-.09,.34-.17,.5-.28,.7-.49,1.3-1.12,1.77-1.85,.11-.17,.18-.34,.27-.52,.11-.21,.23-.41,.32-.63,.09-.22,.14-.45,.2-.68,.05-.19,.12-.37,.16-.57,.08-.43,.12-.86,.12-1.29,0,0,0-.01,0-.02s0-.01,0-.02c0-.43-.04-.86-.12-1.29-.04-.2-.11-.38-.16-.57-.06-.23-.11-.46-.2-.68-.09-.22-.21-.42-.32-.63-.09-.17-.16-.35-.27-.52-.47-.73-1.07-1.36-1.77-1.85-.16-.11-.33-.19-.5-.28-.2-.11-.39-.24-.61-.33Z"/>
      </g>
    </g>
  </g>
</svg>