<?xml version="1.0" encoding="utf-8"?>
<!-- Generator: Adobe Illustrator 28.7.1, SVG Export Plug-In . SVG Version: 9.03 Build 54978)  -->
<svg version="1.0" id="Layer_1" xmlns="http://www.w3.org/2000/svg" xmlns:xlink="http://www.w3.org/1999/xlink" x="0px" y="0px"
	 viewBox="0 0 64 64" style="enable-background:new 0 0 64 64;" xml:space="preserve">
<style type="text/css">
	.st0{fill:none;stroke:#5C6751;stroke-width:2;stroke-linecap:round;stroke-linejoin:round;stroke-miterlimit:10;}
</style>
<g>
	<path class="st0" d="M44.8,12H19.2c-2.6,0-4.6-2.1-4.6-4.6v0c0-2.6,2.1-4.6,4.6-4.6h25.7c2.6,0,4.6,2.1,4.6,4.6v0
		C49.5,9.9,47.4,12,44.8,12z"/>
	<path class="st0" d="M32,61.2L32,61.2c-6.3,0-11.3-5.1-11.3-11.3V12h22.7v37.9C43.3,56.2,38.3,61.2,32,61.2z"/>
	<path class="st0" d="M32,21.2c0,0,5.1,3.8,5.1,8.5c0,4.7-5.1,8.5-5.1,8.5s-5.1-3.8-5.1-8.5C26.9,25,32,21.2,32,21.2z"/>
	<polyline class="st0" points="32,44.6 32,38.2 32,27.8 	"/>
	<path class="st0" d="M42.8,53.4c-1-5-5.5-8.8-10.8-8.8s-9.8,3.8-10.8,8.8"/>
</g>
</svg>
