<?xml version="1.0" encoding="utf-8"?>
<!-- Generator: Adobe Illustrator 28.7.1, SVG Export Plug-In . SVG Version: 9.03 Build 54978)  -->
<svg version="1.0" id="Layer_1" xmlns="http://www.w3.org/2000/svg" xmlns:xlink="http://www.w3.org/1999/xlink" x="0px" y="0px"
	 viewBox="0 0 64 64" style="enable-background:new 0 0 64 64;" xml:space="preserve">
<style type="text/css">
	.st0{fill:none;stroke:#5C6751;stroke-width:2;stroke-linecap:round;stroke-linejoin:round;stroke-miterlimit:10;}
</style>
<g>
	<path class="st0" d="M2.8,55.6c4.9,0,4.9,2.2,9.7,2.2c4.9,0,4.9-2.2,9.7-2.2c4.9,0,4.9,2.2,9.7,2.2c4.9,0,4.9-2.2,9.7-2.2
		c4.9,0,4.9,2.2,9.7,2.2s4.9-2.2,9.7-2.2"/>
	<path class="st0" d="M35.1,45.7c0,0-3-8.9,6.1-12.1c7.2-2.5,9.3-6,9.3-6S57.3,48.6,35.1,45.7z"/>
	<path class="st0" d="M28.9,45.7c0,0,3-8.9-6.1-12.1c-7.2-2.5-9.3-6-9.3-6S6.7,48.6,28.9,45.7z"/>
	<path class="st0" d="M19.8,38.1c0,0,10.4,4.1,12.2,15.8c1.8-11.8,12.2-15.8,12.2-15.8"/>
	<line class="st0" x1="32" y1="57.8" x2="32" y2="53.9"/>
	<circle class="st0" cx="32" cy="17.2" r="11.1"/>
	<polyline class="st0" points="32,10.9 32,17.2 35.6,18.8 	"/>
</g>
</svg>
