<?xml version="1.0" encoding="utf-8"?>
<!-- Generator: Adobe Illustrator 28.7.1, SVG Export Plug-In . SVG Version: 9.03 Build 54978)  -->
<svg version="1.0" id="Layer_1" xmlns="http://www.w3.org/2000/svg" xmlns:xlink="http://www.w3.org/1999/xlink" x="0px" y="0px"
	 viewBox="0 0 64 64" style="enable-background:new 0 0 64 64;" xml:space="preserve">
<style type="text/css">
	.st0{fill:none;stroke:#5C6751;stroke-width:2;stroke-linecap:round;stroke-linejoin:round;stroke-miterlimit:10;}
</style>
<g>
	<g>
		<path class="st0" d="M60.2,15.4L52.4,16c0,0-4.2,4-8.5,6.7c-0.8,0.5-1.6,1-2.4,1.4c-2.3,1.1-4,2.3-5.2,3.3
			c-0.9,0.7-1.5,1.3-1.9,1.8c-0.3,0.4-1,0.6-1.4,0.2c-2.1-2.4-1.2-4.8,0.3-6.6c0.1-0.1,0.1-0.1,0.2-0.2c0.8-0.9,1.8-1.7,2.6-2.2
			c0.5-0.3,0.4-1.1-0.2-1.3c0,0-3.6-1.4-5-0.4c-1.2,0.6-1.8,1.7-2.2,3"/>
		<path class="st0" d="M24.4,28.8c-1.1-0.1-1.9-1.4-2-3.4c0,0-0.2-4.6-0.4-7.4c-0.1-1.6,0.5-3.1,1.5-4.3c1.5-1.6,3.9-3.6,7-4.5
			C36.1,7.8,58,4.4,58,4.4"/>
	</g>
	<path class="st0" d="M33.5,22.5c-0.9-0.8-2-1.2-3.1-1.2c-0.6,0-1.2,0.1-1.7,0.3c-2.4,0.9-4.2,3.8-4.4,7.2c0,0.2,0,0.4,0,0.7
		c0,2.8,2.3,6.4,4.1,8.7c1,1.3,2.9,1.3,3.9,0c1.8-2.3,4.1-5.8,4.1-8.7c0-0.8-0.1-1.5-0.2-2.2"/>
	<path class="st0" d="M57.1,37.5H44.4c-2.7,0-5,1.6-6,4.1l0,0c-1,2.5-3.3,4.1-6,4.1h-4c-2.7,0-5-1.6-6-4.1l0,0c-1-2.5-3.3-4.1-6-4.1
		H3.8"/>
	<line class="st0" x1="3.8" y1="51.9" x2="16.5" y2="51.9"/>
	<line class="st0" x1="44.4" y1="51.9" x2="57.1" y2="51.9"/>
	<line class="st0" x1="44.4" y1="59.6" x2="57.1" y2="59.6"/>
	<line class="st0" x1="3.8" y1="59.6" x2="16.5" y2="59.6"/>
	<line class="st0" x1="24.1" y1="59.6" x2="36.8" y2="59.6"/>
	<line class="st0" x1="24.1" y1="51.9" x2="36.8" y2="51.9"/>
	<line class="st0" x1="44.4" y1="44.9" x2="57.1" y2="44.9"/>
	<line class="st0" x1="3.8" y1="44.9" x2="16.5" y2="44.9"/>
</g>
</svg>
