<?xml version="1.0" encoding="utf-8"?>
<!-- Generator: Adobe Illustrator 28.7.1, SVG Export Plug-In . SVG Version: 9.03 Build 54978)  -->
<svg version="1.0" id="Layer_1" xmlns="http://www.w3.org/2000/svg" xmlns:xlink="http://www.w3.org/1999/xlink" x="0px" y="0px"
	 viewBox="0 0 64 64" style="enable-background:new 0 0 64 64;" xml:space="preserve">
<style type="text/css">
	.st0{fill:none;stroke:#5C6751;stroke-width:2;stroke-linecap:round;stroke-linejoin:round;stroke-miterlimit:10;}
</style>
<g>
	<path class="st0" d="M2.8,49.1c4.9,0,4.9,2.2,9.7,2.2c4.9,0,4.9-2.2,9.7-2.2c4.9,0,4.9,2.2,9.7,2.2c4.9,0,4.9-2.2,9.7-2.2
		c4.9,0,4.9,2.2,9.7,2.2s4.9-2.2,9.7-2.2"/>
	<path class="st0" d="M2.8,58c4.9,0,4.9,2.2,9.7,2.2c4.9,0,4.9-2.2,9.7-2.2"/>
	<path class="st0" d="M41.8,58c4.9,0,4.9,2.2,9.7,2.2c4.9,0,4.9-2.2,9.7-2.2"/>
	<polyline class="st0" points="28.6,21.2 26.9,3.8 37.1,3.8 35.4,21.2 	"/>
	<circle class="st0" cx="32" cy="25" r="5.1"/>
	<polyline class="st0" points="26.9,25 18.8,31.7 25.8,40.2 	"/>
	<polyline class="st0" points="37.1,25 45.2,31.7 38.2,40.2 	"/>
	<ellipse class="st0" cx="32" cy="42.5" rx="2.9" ry="4.4"/>
</g>
</svg>
