<?xml version="1.0" encoding="utf-8"?>
<!-- Generator: Adobe Illustrator 28.7.1, SVG Export Plug-In . SVG Version: 9.03 Build 54978)  -->
<svg version="1.0" id="Layer_1" xmlns="http://www.w3.org/2000/svg" xmlns:xlink="http://www.w3.org/1999/xlink" x="0px" y="0px"
	 viewBox="0 0 64 64" style="enable-background:new 0 0 64 64;" xml:space="preserve">
<style type="text/css">
	.st0{fill:none;stroke:#5C6751;stroke-width:2;stroke-linecap:round;stroke-linejoin:round;stroke-miterlimit:10;}
</style>
<g>
	<g>
		<path class="st0" d="M43,54.1l-1.5-1.3c-0.7-0.6-1.7-1-2.7-1c-2.8,0-8.7,0-12.6-0.2c-5.2-0.2-9-4.1-9-4.1L7.3,38
			c-1.2-1.3,0-5.8,2.9-3.2l6.4,4.8c2.2,1.6,4.9,2.5,7.6,2.5h8.8"/>
		<path class="st0" d="M25,42.1c-1.5,0-0.9-4.1,2.9-4.2h9.4c9.5-2.9,12.3,5.4,12.3,5.4"/>
	</g>
	<path class="st0" d="M57.2,44.7L53,41.9c-0.9-0.6-2.1-0.4-2.7,0.6l-8.2,13.1c-0.5,0.9-0.3,2,0.5,2.6l4.9,3.5"/>
	<path class="st0" d="M11.6,35.8c0.8-2.2,2.9-3.8,5.4-3.8c0.4,0,0.9,0.1,1.3,0.1c0.9,0.2,1.9-0.1,2.5-0.8c1.3-1.5,3.3-2.5,5.5-2.5
		c2.2,0,4.2,1,5.6,2.6c0.6,0.7,1.6,1.1,2.5,0.8c0.5-0.2,1.1-0.3,1.7-0.3c3,0,5.5,2.4,5.7,5.4"/>
	<path class="st0" d="M29.5,20.4c0,0-3-8.9,6.1-12.1c7.2-2.5,9.3-6,9.3-6S51.7,23.3,29.5,20.4z"/>
	<path class="st0" d="M24.1,22.8c0,0,2.1-6.3-4.3-8.6c-5.1-1.8-6.6-4.2-6.6-4.2S8.4,24.8,24.1,22.8z"/>
	<path class="st0" d="M26.4,28.6c1.8-11.8,12.2-15.8,12.2-15.8"/>
	<path class="st0" d="M17.7,17.4c0,0,3.8,1.5,6.4,5.4h0c1,1.6,1.9,3.5,2.2,5.8v0.2"/>
</g>
</svg>
