<?xml version="1.0" encoding="utf-8"?>
<!-- Generator: Adobe Illustrator 28.7.1, SVG Export Plug-In . SVG Version: 9.03 Build 54978)  -->
<svg version="1.0" id="Layer_1" xmlns="http://www.w3.org/2000/svg" xmlns:xlink="http://www.w3.org/1999/xlink" x="0px" y="0px"
	 viewBox="0 0 64 64" style="enable-background:new 0 0 64 64;" xml:space="preserve">
<style type="text/css">
	.st0{fill:none;stroke:#5C6751;stroke-width:2;stroke-linecap:round;stroke-linejoin:round;stroke-miterlimit:10;}
</style>
<g>
	<g>
		<path class="st0" d="M52.1,61.4H11.9c-2.7,0-4.8-2.2-4.8-4.8V16.3c0-2.7,2.2-4.8,4.8-4.8h40.3c2.7,0,4.8,2.2,4.8,4.8v40.3
			C56.9,59.2,54.8,61.4,52.1,61.4z"/>
		<path class="st0" d="M52.1,11.5V5.1c0-1.4-1.1-2.4-2.4-2.4H14.3c-1.4,0-2.4,1.1-2.4,2.4v6.5"/>
		<path class="st0" d="M46.8,54.8H17.2c-2.2,0-4.1-1.8-4.1-4.1V21.3c0-2.2,1.8-4.1,4.1-4.1h29.7c2.2,0,4.1,1.8,4.1,4.1v29.4
			C50.9,53,49.1,54.8,46.8,54.8z"/>
	</g>
	<path class="st0" d="M25.4,40.9c0,0-3-8.9,6.1-12.1c7.2-2.5,9.3-6,9.3-6S47.6,43.8,25.4,40.9z"/>
	<path class="st0" d="M22.3,49.2C24,37.4,34.4,33.4,34.4,33.4"/>
	<line class="st0" x1="32" y1="2.6" x2="32" y2="7.1"/>
	<line class="st0" x1="17.2" y1="2.6" x2="17.2" y2="7.1"/>
	<line class="st0" x1="24.6" y1="2.6" x2="24.6" y2="7.1"/>
	<line class="st0" x1="39.4" y1="2.6" x2="39.4" y2="7.1"/>
	<line class="st0" x1="46.8" y1="2.6" x2="46.8" y2="7.1"/>
</g>
</svg>
