<?xml version="1.0" encoding="utf-8"?>
<!-- Generator: Adobe Illustrator 28.7.1, SVG Export Plug-In . SVG Version: 9.03 Build 54978)  -->
<svg version="1.0" id="Layer_1" xmlns="http://www.w3.org/2000/svg" xmlns:xlink="http://www.w3.org/1999/xlink" x="0px" y="0px"
	 viewBox="0 0 64 64" style="enable-background:new 0 0 64 64;" xml:space="preserve">
<style type="text/css">
	.st0{fill:none;stroke:#5C6751;stroke-width:2;stroke-linecap:round;stroke-linejoin:round;stroke-miterlimit:10;}
</style>
<g>
	<path class="st0" d="M2.8,57.8c4.9,0,4.9,2.2,9.7,2.2c4.9,0,4.9-2.2,9.7-2.2c4.9,0,4.9,2.2,9.7,2.2c4.9,0,4.9-2.2,9.7-2.2
		c4.9,0,4.9,2.2,9.7,2.2s4.9-2.2,9.7-2.2"/>
	<line class="st0" x1="13.3" y1="60" x2="13.3" y2="50.6"/>
	<path class="st0" d="M23.2,44.3c0,0-0.5,4.2-3.2,5.9c-2.7,1.7-6.7,0.4-6.7,0.4s0.5-4.2,3.2-5.9C19.3,43,23.2,44.3,23.2,44.3z"/>
	<path class="st0" d="M3.4,44.3c0,0,0.5,4.2,3.2,5.9c2.7,1.7,6.7,0.4,6.7,0.4s-0.5-4.2-3.2-5.9C7.4,43,3.4,44.3,3.4,44.3z"/>
	<line class="st0" x1="50.7" y1="60" x2="50.7" y2="50.6"/>
	<path class="st0" d="M60.6,44.3c0,0-0.5,4.2-3.2,5.9c-2.7,1.7-6.7,0.4-6.7,0.4s0.5-4.2,3.2-5.9C56.6,43,60.6,44.3,60.6,44.3z"/>
	<path class="st0" d="M40.8,44.3c0,0,0.5,4.2,3.2,5.9c2.7,1.7,6.7,0.4,6.7,0.4s-0.5-4.2-3.2-5.9C44.7,43,40.8,44.3,40.8,44.3z"/>
	<line class="st0" x1="32" y1="60" x2="32" y2="38.4"/>
	<path class="st0" d="M41.9,32.1c0,0-0.5,4.2-3.2,5.9S32,38.4,32,38.4s0.5-4.2,3.2-5.9C37.9,30.8,41.9,32.1,41.9,32.1z"/>
	<path class="st0" d="M22.1,32.1c0,0,0.5,4.2,3.2,5.9s6.7,0.4,6.7,0.4s-0.5-4.2-3.2-5.9C26.1,30.8,22.1,32.1,22.1,32.1z"/>
	<circle class="st0" cx="32" cy="14.9" r="4.4"/>
	<line class="st0" x1="32" y1="3.8" x2="32" y2="6.5"/>
	<line class="st0" x1="32" y1="23.2" x2="32" y2="25.9"/>
	<line class="st0" x1="43.1" y1="14.9" x2="40.3" y2="14.9"/>
	<line class="st0" x1="23.7" y1="14.9" x2="20.9" y2="14.9"/>
	<line class="st0" x1="39.8" y1="7" x2="37.9" y2="9"/>
	<line class="st0" x1="26.1" y1="20.7" x2="24.2" y2="22.7"/>
	<line class="st0" x1="39.8" y1="22.7" x2="37.9" y2="20.7"/>
	<line class="st0" x1="26.1" y1="9" x2="24.2" y2="7"/>
</g>
</svg>
