<svg xmlns="http://www.w3.org/2000/svg" viewBox="0 0 24 24">
  <path d="M12 2C7.5540565 2 3.5358314 4.5638915 4.0214844 10.564453C4.014581 10.709718 4 10.850497 4 11C4 11.192733 4.0478032 11.43415 4.0625 11.646484C3.483296 12.079699 3 12.667184 3 13.5C3 14.673261 3.8749468 15.50632 4.9628906 15.777344C5.5584435 17.325776 6.3950551 18.782723 7.5019531 19.902344C8.7204562 21.134853 10.266667 22 12 22C12.492857 22 13.202721 21.91986 13.875 21.84375C14.547279 21.76764 15.128906 21.691406 15.128906 21.691406L14.871094 19.708984C14.871094 19.708984 14.303111 19.781574 13.650391 19.855469C12.99767 19.929362 12.207143 20 12 20C10.933333 20 9.8803251 19.463585 8.9238281 18.496094C7.9673312 17.528603 7.1529511 16.149139 6.6464844 14.675781L6.4140625 14L5.5 14C5.2833333 14 5 13.716667 5 13.5C5 13.27619 5.1322434 13.143419 5.4160156 13.048828L6.2949219 12.755859L6.0703125 11.857422C5.9988461 11.571556 6 11.4 6 11C6 10.557881 6.0352476 10.163094 6.0957031 9.8007812C7.2404182 8.9198828 8.161791 9.6598195 9.5996094 7.4003906C11.105721 10.138775 15.28218 8.4274077 17.767578 9.1914062C17.91735 9.7018548 18 10.294941 18 11L18 16L18.705078 16C18.651628 16.264461 18.596494 16.483523 18.542969 16.660156C18.484876 16.851863 18.451993 16.896427 18.40625 17L13.914062 17 A 1.5 1.5 0 0 0 12.5 16 A 1.5 1.5 0 0 0 12.5 19 A 1.5 1.5 0 0 0 12.769531 18.974609 A 1.0001 1.0001 0 0 0 13 19L19 19 A 1.0001 1.0001 0 0 0 19.669922 18.744141C19.669922 18.744141 19.877485 18.529174 20.017578 18.291016C20.157671 18.052858 20.312519 17.717126 20.457031 17.240234C20.56725 16.876512 20.666028 16.398589 20.753906 15.849609C21.483043 15.550398 22 14.833645 22 14L22 12C22 10.9 21.1 10 20 10L19.994141 10C20.144377 4.3967421 16.306349 2 12 2 z M 9.5 11 A 1.5 1.5 0 0 0 9.5 14 A 1.5 1.5 0 0 0 9.5 11 z M 14.5 11 A 1.5 1.5 0 0 0 14.5 14 A 1.5 1.5 0 0 0 14.5 11 z" fill="#F2E3CC" />
</svg>