<svg xmlns="http://www.w3.org/2000/svg" viewBox="0 0 48 48">
  <path d="M6.5 10C4.019 10 2 12.019 2 14.5L2 31.5C2 33.981 4.019 36 6.5 36L7.2148438 36C7.8742368 38.298413 10.000264 40 12.5 40C14.999736 40 17.125763 38.298413 17.785156 36L26.5 36C27.328 36 28 35.329 28 34.5L28 14.5C28 12.019 25.981 10 23.5 10L6.5 10 z M 30 14L30 34.5C30 37.519594 32.480406 40 35.5 40C37.999736 40 40.125763 38.298413 40.785156 36L41.5 36C43.985 36 46 33.985 46 31.5L46 25.136719C46 24.506719 45.867328 23.883594 45.611328 23.308594L42.662109 16.673828C41.940109 15.047828 40.328781 14 38.550781 14L30 14 z M 34 17L38.550781 17C39.143781 17 39.679922 17.348625 39.919922 17.890625L41.564453 21.59375C41.858453 22.25475 41.375344 23 40.652344 23L34 23C33.448 23 33 22.552 33 22L33 18C33 17.448 33.448 17 34 17 z M 12.5 32C13.896406 32 15 33.103594 15 34.5C15 35.896406 13.896406 37 12.5 37C11.103594 37 10 35.896406 10 34.5C10 33.103594 11.103594 32 12.5 32 z M 35.5 32C36.896406 32 38 33.103594 38 34.5C38 35.896406 36.896406 37 35.5 37C34.103594 37 33 35.896406 33 34.5C33 33.103594 34.103594 32 35.5 32 z" fill="#BC502E" />
</svg>