<svg xmlns="http://www.w3.org/2000/svg" viewBox="0 0 321.19 186.89"><defs><style>.cls-1{fill:#5c6751;}</style></defs><title>Falaqah Open source1</title><g id="Layer_2" data-name="Layer 2"><path class="cls-1" d="M12.49,68.58a3.52,3.52,0,0,0,2.55-1,3.52,3.52,0,0,0,0-5,3.47,3.47,0,0,0-2.55-1A3.56,3.56,0,0,0,10,67.56,3.46,3.46,0,0,0,12.49,68.58Z"/><path class="cls-1" d="M22.05,68.58a3.45,3.45,0,0,0,2.49-1,3.56,3.56,0,0,0-2.49-6.07,3.38,3.38,0,0,0-2.53,1,3.53,3.53,0,0,0,2.53,6Z"/><path class="cls-1" d="M126.89,68A3.45,3.45,0,0,0,129.41,67a3.28,3.28,0,0,0,1.08-2.47A3.42,3.42,0,0,0,129.41,62a3.47,3.47,0,0,0-2.52-1.05,3.41,3.41,0,0,0-2.5,1.05,3.5,3.5,0,0,0-1,2.55A3.57,3.57,0,0,0,126.89,68Z"/><path class="cls-1" d="M137.2,68A3.47,3.47,0,0,0,139.72,67a3.28,3.28,0,0,0,1.08-2.47A3.42,3.42,0,0,0,139.72,62a3.49,3.49,0,0,0-2.52-1.05,3.36,3.36,0,0,0-2.47,1,3.51,3.51,0,0,0-1.07,2.58A3.57,3.57,0,0,0,137.2,68Z"/><path class="cls-1" d="M182,68.58a3.71,3.71,0,1,0,0-7.41,3.65,3.65,0,0,0-3.7,3.7,3.67,3.67,0,0,0,3.7,3.71Z"/><path class="cls-1" d="M191.66,75.26a12.75,12.75,0,0,0-9.58-4,12.6,12.6,0,0,0-9.18,3.63,11.75,11.75,0,0,0-3.71,8.72,9.86,9.86,0,0,0,4,8.27h-8.53a3.36,3.36,0,0,1-2.85-1.26,5.61,5.61,0,0,1-1-3.47V56.23h-6.22V87.15a5.61,5.61,0,0,1-1,3.47,3.31,3.31,0,0,1-2.79,1.26h-5.37V85.22a13.83,13.83,0,0,0-3.84-10,12.75,12.75,0,0,0-9.58-4,12.6,12.6,0,0,0-9.18,3.63,11.75,11.75,0,0,0-3.71,8.72,9.86,9.86,0,0,0,4,8.27H33.05c-2.5,0-3.76-1.58-3.76-4.73V71.26H16.41A12.88,12.88,0,0,0,7,75.18a13,13,0,0,0-4,9.56,12.87,12.87,0,0,0,3.92,9.45,12.94,12.94,0,0,0,9.5,3.91,10.77,10.77,0,0,0,9.29-4.56q2,4.56,7.35,4.56H150.89a7.89,7.89,0,0,0,6.87-3.43,8,8,0,0,0,6.93,3.43H195.5V85.22A13.83,13.83,0,0,0,191.66,75.26ZM23,84.68a7.23,7.23,0,0,1-1.88,5.21,6.19,6.19,0,0,1-4.72,2,6.86,6.86,0,0,1-5.05-2.12,7.21,7.21,0,0,1,0-10.15,6.86,6.86,0,0,1,5.05-2.12H23Zm116.23,7.2H132.1a7.15,7.15,0,0,1-7.14-7.2,7.14,7.14,0,0,1,7.14-7.19,6.87,6.87,0,0,1,5,2.09,6.94,6.94,0,0,1,2.1,5.1Zm50,0h-7.14a7.15,7.15,0,0,1-7.14-7.2,7.14,7.14,0,1,1,14.28,0Z"/><polygon class="cls-1" points="2.76 139.05 6.51 139.05 6.51 130 16.34 130 16.34 126.39 6.51 126.39 6.51 120.95 16.93 120.95 16.93 117.31 2.76 117.31 2.76 139.05"/><path class="cls-1" d="M41,117.31l-7.71,21.74h4.14l1.76-5h7.71l1.76,5h4.14L45,117.31Zm-.74,13.19L43,122.43l2.83,8.07Z"/><polygon class="cls-1" points="73.96 117.31 70.17 117.31 70.17 139.05 84.35 139.05 84.35 135.3 73.96 135.3 73.96 117.31"/><path class="cls-1" d="M107.84,117.31l-7.71,21.74h4.14l1.76-5h7.71l1.76,5h4.14l-7.72-21.74Zm-.74,13.19,2.77-8.07,2.83,8.07Z"/><path class="cls-1" d="M155.33,120.28a11.23,11.23,0,0,0-19.17,7.9,11.23,11.23,0,0,0,11.26,11.26,10.26,10.26,0,0,0,6.31-2l2.18,2.59,2.35-2L156,135.39a11.13,11.13,0,0,0-.64-15.11Zm-2.08,12-2.14-2.38L149,131.76l2.2,2.59a6.15,6.15,0,0,1-3.78,1.25,7.41,7.41,0,0,1-7.42-7.42,7.05,7.05,0,0,1,2.18-5.21,7.18,7.18,0,0,1,5.24-2.14,7.32,7.32,0,0,1,7.32,7.35A6.39,6.39,0,0,1,153.25,132.32Z"/><path class="cls-1" d="M183.15,117.31l-7.71,21.74h4.14l1.76-5h7.71l1.75,5h4.14l-7.71-21.74Zm-.74,13.19,2.77-8.07L188,130.5Z"/><path class="cls-1" d="M317.92,49.52V14.38A3.41,3.41,0,0,0,314.51,11h0a3.41,3.41,0,0,0-3.41,3.41V49.52c0,14.41-3.87,25.12-11.52,31.83a33,33,0,0,1-15.94,7.35V69.36l3.81-3.8a40.11,40.11,0,0,0,0-56.72l-7.2-7.2-7.2,7.2a40.09,40.09,0,0,0-8.95,43.09,39.89,39.89,0,0,0-22.26-6.74H231.65V55.37a40.12,40.12,0,0,0,29.12,38.57c-19.86,7.73-28.94,22.85-28.94,47.13A44.23,44.23,0,0,0,276,185.25a36.08,36.08,0,0,0,36-36,29.55,29.55,0,0,0-29.51-29.51A24.32,24.32,0,0,0,258.25,144a20.13,20.13,0,0,0,20.11,20.11,16.79,16.79,0,0,0,16.78-16.77,14.12,14.12,0,0,0-14.1-14.1,12,12,0,0,0-12,12,10.27,10.27,0,0,0,10.26,10.26,8.9,8.9,0,0,0,8.88-8.89c0-.2,0-.4,0-.61a7,7,0,0,1,.14,1.38,10,10,0,0,1-10,10A13.31,13.31,0,0,1,265.07,144a17.49,17.49,0,0,1,17.47-17.47,22.72,22.72,0,0,1,22.69,22.69A29.26,29.26,0,0,1,276,178.44a37.41,37.41,0,0,1-37.36-37.37c0-27.19,11.83-40.38,40.67-44.93,6.77-.47,16.58-2.51,24.7-9.61C313.25,78.47,317.92,66,317.92,49.52ZM277.87,13.66l2.38-2.38,2.38,2.38a33.33,33.33,0,0,1,0,47.07l-2.38,2.38-2.38-2.38a33.28,33.28,0,0,1,0-47.07Zm-39.4,41.71V52h3.37a33.33,33.33,0,0,1,33.28,33.29v3.36h-3.36A33.32,33.32,0,0,1,238.47,55.37Z"/><path class="cls-1" d="M274,108.58a6.27,6.27,0,1,0,6.26-6.26A6.26,6.26,0,0,0,274,108.58Z"/><path class="cls-1" d="M242.56,32.54a6.27,6.27,0,1,0-6.27-6.26A6.26,6.26,0,0,0,242.56,32.54Z"/><path class="cls-1" d="M242.56,15.91a6.27,6.27,0,1,0-6.27-6.26A6.26,6.26,0,0,0,242.56,15.91Z"/></g></svg>